<svg width="19" height="19" viewBox="0 0 19 19" fill="none" xmlns="http://www.w3.org/2000/svg">
<rect x="0.796875" y="0.25" width="18" height="18" rx="4" fill="#61876E"/>
<path d="M7.06121 8.2973C6.80921 8.05391 6.47171 7.91924 6.12138 7.92229C5.77106 7.92533 5.43594 8.06585 5.18822 8.31357C4.94049 8.5613 4.79997 8.89642 4.79693 9.24674C4.79388 9.59707 4.92855 9.93457 5.17194 10.1866L7.84417 12.8588C8.09473 13.1093 8.43452 13.25 8.78881 13.25C9.1431 13.25 9.48289 13.1093 9.73344 12.8588L15.0779 7.51433C15.3213 7.26234 15.456 6.92483 15.4529 6.57451C15.4499 6.22418 15.3094 5.88907 15.0616 5.64134C14.8139 5.39361 14.4788 5.25309 14.1285 5.25005C13.7781 5.24701 13.4406 5.38168 13.1886 5.62506L8.78881 10.0249L7.06121 8.2973Z" fill="white"/>
</svg>
