<svg xmlns="http://www.w3.org/2000/svg" width="20" height="20" viewBox="0 0 20 20" fill="none">
    <path d="M12.2311 10.0002L17.2805 4.95078C17.5725 4.65874 17.5725 4.18483 17.2805 3.89233L16.1072 2.71903C15.8152 2.42699 15.3413 2.42699 15.0488 2.71903L9.99977 7.76894L4.95031 2.7195C4.65828 2.42746 4.18436 2.42746 3.89186 2.7195L2.71903 3.89233C2.42699 4.18436 2.42699 4.65827 2.71903 4.95078L7.76848 10.0002L2.71903 15.0497C2.42699 15.3417 2.42699 15.8156 2.71903 16.1081L3.89233 17.2814C4.18436 17.5735 4.65828 17.5735 4.95078 17.2814L9.99977 12.2315L15.0492 17.281C15.3413 17.573 15.8152 17.573 16.1077 17.281L17.281 16.1077C17.573 15.8156 17.573 15.3417 17.281 15.0492L12.2311 10.0002Z" fill="#CFCFCF"/>
</svg>