<svg width="18" height="18" viewBox="0 0 18 18" fill="none" xmlns="http://www.w3.org/2000/svg">
<g id="icon_phone_32">
<path id="Vector" d="M15.365 11.7899L12.4118 10.5243C12.2857 10.4705 12.1455 10.4592 12.0123 10.492C11.8792 10.5248 11.7603 10.6 11.6735 10.7062L10.3657 12.3041C8.31317 11.3364 6.66136 9.68456 5.69362 7.63203L7.29149 6.32419C7.39794 6.23762 7.47327 6.11873 7.5061 5.98551C7.53893 5.8523 7.52746 5.71201 7.47343 5.5859L6.20778 2.63272C6.14849 2.49677 6.04361 2.38577 5.91124 2.31887C5.77887 2.25196 5.6273 2.23334 5.48267 2.26621L2.74044 2.89904C2.601 2.93123 2.47659 3.00975 2.38752 3.12176C2.29844 3.23377 2.24997 3.37266 2.25 3.51577C2.25 10.2791 7.73183 15.7504 14.4846 15.7504C14.6277 15.7505 14.7667 15.702 14.8788 15.6129C14.9908 15.5239 15.0694 15.3994 15.1016 15.2599L15.7344 12.5177C15.7671 12.3724 15.7481 12.2202 15.6806 12.0874C15.6132 11.9545 15.5016 11.8494 15.365 11.7899Z" fill="#3C6255"/>
</g>
</svg>
