<svg width="321" height="193" viewBox="0 0 321 193" fill="none" xmlns="http://www.w3.org/2000/svg">
<mask id="mask0_4318_72314" style="mask-type:luminance" maskUnits="userSpaceOnUse" x="57" y="0" width="207" height="139">
<path d="M263.5 0H57.5V139H263.5V0Z" fill="white"/>
</mask>
<g mask="url(#mask0_4318_72314)">
<path fill-rule="evenodd" clip-rule="evenodd" d="M118.024 12.4558C102.846 12.4558 90.3532 25.9838 90.3532 42.8373C90.3532 53.0981 94.9855 62.1298 102.037 67.6225C99.9607 67.0726 97.7933 66.7814 95.5613 66.7814C80.3835 66.7814 67.8906 80.3095 67.8906 97.1629C67.8906 114.016 80.39 127.544 95.5613 127.544H140.791C141.127 127.544 141.444 127.493 141.748 127.402C142.647 127.499 143.553 127.544 144.465 127.544H237.13C237.609 127.544 238.075 127.441 238.508 127.234C238.508 127.234 255.103 119.6 255.103 97.1629C255.103 74.7261 237.117 67.0467 237.117 67.0467C236.71 66.872 236.276 66.7814 235.836 66.7814H219.921C224.21 62.1103 228.661 54.4568 228.661 42.8373C228.661 20.3941 210.676 12.7211 210.676 12.7211C210.275 12.5464 209.835 12.4558 209.395 12.4558H118.024ZM120.017 111.383C118.179 115.174 115.637 118.48 112.583 121.101H127.457C124.403 118.48 121.854 115.174 120.023 111.383H120.017ZM123.232 97.1564C123.232 84.0295 132.652 73.2123 144.465 73.2123C156.279 73.2123 165.699 84.0295 165.699 97.1564C165.699 110.283 156.279 121.101 144.465 121.101C132.652 121.101 123.232 110.283 123.232 97.1564ZM116.795 97.1564C116.795 110.283 107.375 121.101 95.5613 121.101C83.7477 121.101 74.3279 110.283 74.3279 97.1564C74.3279 84.0295 83.7477 73.2123 95.5613 73.2123C107.375 73.2123 116.795 84.0295 116.795 97.1564ZM161.487 73.2123C167.957 78.7567 172.143 87.4002 172.143 97.1564C172.143 99.1038 171.974 101.012 171.657 102.856C178.974 102.675 199.943 102.3 225.951 103.07C227.723 103.121 229.127 104.609 229.075 106.382C229.024 108.155 227.536 109.559 225.763 109.507C196.811 108.653 174.155 109.222 169.826 109.345C167.97 113.99 165.078 118.027 161.487 121.107C188.038 121.107 236.321 121.107 236.328 121.107C238.819 119.638 248.665 112.845 248.665 97.1694C248.665 95.0797 248.471 93.1452 248.135 91.3596C247.96 91.3855 247.779 91.3984 247.598 91.3984C247.598 91.3984 209.544 91.0879 190.859 91.3984C189.08 91.4308 187.618 90.0075 187.586 88.2348C187.56 86.4621 188.977 84.9935 190.749 84.9611C207.214 84.6894 238.676 84.8964 246.071 84.9482C242.655 77.6828 236.884 74.1762 235.086 73.2252H161.487V73.2123ZM144.472 81.2799C136.501 81.2799 129.857 88.3059 129.857 97.1564C129.857 106.007 136.501 113.033 144.472 113.033C152.442 113.033 159.087 106.007 159.087 97.1564C159.087 88.3059 152.442 81.2799 144.472 81.2799ZM95.5678 81.2799C87.5972 81.2799 80.9528 88.3059 80.9528 97.1564C80.9528 106.007 87.5972 113.033 95.5678 113.033C103.538 113.033 110.183 106.007 110.183 97.1564C110.183 88.3059 103.538 81.2799 95.5678 81.2799ZM144.472 87.7172C149.085 87.7172 152.649 92.0324 152.649 97.1564C152.649 102.28 149.085 106.596 144.472 106.596C139.859 106.596 136.294 102.28 136.294 97.1564C136.294 92.0324 139.859 87.7172 144.472 87.7172ZM95.5678 87.7172C100.181 87.7172 103.745 92.0324 103.745 97.1564C103.745 102.28 100.181 106.596 95.5678 106.596C90.9549 106.596 87.3901 102.28 87.3901 97.1564C87.3901 92.0324 90.9549 87.7172 95.5678 87.7172ZM111.554 72.3712C115.067 75.1079 117.979 78.7244 120.017 82.9297C121.854 79.1385 124.397 75.826 127.45 73.2123H118.024C115.798 73.2123 113.631 72.9211 111.548 72.3712H111.554ZM118.03 18.8866C129.85 18.8866 139.264 29.7039 139.264 42.8308C139.264 55.9577 129.844 66.775 118.03 66.775C106.217 66.775 96.797 55.9577 96.797 42.8308C96.797 29.7039 106.217 18.8866 118.03 18.8866ZM135.046 18.8866C141.515 24.4311 145.701 33.0746 145.701 42.8308C145.701 44.8687 145.52 46.8549 145.171 48.7764C151.498 48.6082 173.184 48.1618 200.389 48.964C202.162 49.0158 203.566 50.4973 203.514 52.2765C203.462 54.0492 201.974 55.4531 200.201 55.4013C167.95 54.4503 143.514 55.2655 143.514 55.2655C143.437 55.2655 143.359 55.2655 143.281 55.2655C141.418 59.8071 138.572 63.7536 135.046 66.775C161.597 66.775 209.88 66.775 209.88 66.775C212.371 65.3063 222.218 58.5132 222.218 42.8373C222.218 40.8446 222.043 39.0008 221.732 37.2928C218.168 37.2669 183.012 37.0016 165.285 37.2928C163.506 37.3251 162.043 35.9018 162.011 34.1291C161.979 32.3564 163.402 30.8878 165.175 30.8555C181.116 30.5902 211.122 30.7778 219.72 30.8361C216.324 23.4154 210.449 19.8571 208.638 18.8931H135.039L135.046 18.8866ZM118.03 26.9543C110.06 26.9543 103.415 33.9803 103.415 42.8308C103.415 51.6813 110.06 58.7073 118.03 58.7073C126.001 58.7073 132.645 51.6813 132.645 42.8308C132.645 33.9803 126.001 26.9543 118.03 26.9543ZM118.03 33.3916C122.643 33.3916 126.208 37.7068 126.208 42.8308C126.208 47.9548 122.643 52.27 118.03 52.27C113.418 52.27 109.853 47.9548 109.853 42.8308C109.853 37.7068 113.418 33.3916 118.03 33.3916Z" fill="#35433E" stroke="#35433E" stroke-width="2.39" stroke-linejoin="round"/>
</g>
<path d="M1.25977 153.988H15.4078V160.288H8.92777V162.952H15.2998V168.928H8.92777V178H1.25977V153.988ZM5.79577 175.12V166.372H12.6358V165.508H5.79577V157.732H12.9958V156.868H4.85977V175.12H5.79577ZM17.5765 153.988H25.7125V178H17.5765V153.988ZM22.1125 175.12V156.868H21.1765V175.12H22.1125ZM35.8969 169.648C36.8329 169.648 37.7449 169.552 38.6329 169.36L42.0529 175.12H43.1689L39.5689 169.072C40.8649 168.616 41.8969 167.92 42.6649 166.984C43.4329 166.024 43.8169 164.788 43.8169 163.276C43.8169 162.22 43.6129 161.296 43.2049 160.504C42.7969 159.712 42.2329 159.052 41.5129 158.524C40.8169 157.972 39.9889 157.564 39.0289 157.3C38.0689 157.012 37.0249 156.868 35.8969 156.868H32.0089V175.12H32.9449V169.648H35.8969ZM32.9449 168.784V157.732H35.8969C38.0809 157.732 39.7849 158.212 41.0089 159.172C42.2569 160.132 42.8809 161.5 42.8809 163.276C42.8809 165.052 42.2569 166.42 41.0089 167.38C39.7849 168.316 38.0809 168.784 35.8969 168.784H32.9449ZM28.4089 153.988H36.6889C38.2249 153.988 39.6409 154.192 40.9369 154.6C42.2569 155.008 43.3969 155.608 44.3569 156.4C45.3169 157.192 46.0609 158.176 46.5889 159.352C47.1409 160.504 47.4169 161.836 47.4169 163.348C47.4169 164.548 47.2489 165.568 46.9129 166.408C46.5769 167.248 46.2049 167.944 45.7969 168.496C45.3169 169.12 44.7769 169.648 44.1769 170.08L48.6769 178H39.6769L36.0769 171.916V178H28.4089V153.988ZM36.0769 165.796H36.4729C37.3849 165.796 38.1529 165.592 38.7769 165.184C39.4249 164.776 39.7489 164.092 39.7489 163.132C39.7489 162.172 39.4249 161.488 38.7769 161.08C38.1529 160.672 37.3849 160.468 36.4729 160.468H36.0769V165.796ZM51.9531 174.868C52.2891 174.94 52.6491 175 53.0331 175.048C53.3691 175.096 53.7171 175.144 54.0771 175.192C54.4611 175.216 54.8451 175.228 55.2291 175.228C55.9011 175.228 56.5491 175.156 57.1731 175.012C57.8211 174.844 58.3971 174.58 58.9011 174.22C59.4051 173.86 59.8011 173.404 60.0891 172.852C60.4011 172.276 60.5571 171.58 60.5571 170.764C60.5571 170.068 60.3771 169.408 60.0171 168.784C59.6811 168.16 59.2371 167.56 58.6851 166.984C58.1571 166.408 57.5811 165.856 56.9571 165.328C56.3571 164.8 55.7811 164.272 55.2291 163.744C54.7011 163.192 54.2571 162.652 53.8971 162.124C53.5611 161.572 53.3931 161.008 53.3931 160.432C53.3931 159.568 53.6691 158.908 54.2211 158.452C54.7731 157.972 55.6611 157.732 56.8851 157.732C57.0771 157.732 57.2691 157.744 57.4611 157.768C57.6771 157.768 57.8811 157.78 58.0731 157.804C58.2651 157.828 58.4571 157.84 58.6491 157.84V156.904C58.4811 156.904 58.3011 156.892 58.1091 156.868C57.9411 156.844 57.7491 156.832 57.5331 156.832C57.3411 156.808 57.1371 156.796 56.9211 156.796C55.6251 156.796 54.5571 157.096 53.7171 157.696C52.8771 158.272 52.4571 159.184 52.4571 160.432C52.4571 161.104 52.6251 161.74 52.9611 162.34C53.3211 162.916 53.7651 163.492 54.2931 164.068C54.8451 164.62 55.4211 165.16 56.0211 165.688C56.6451 166.216 57.2211 166.756 57.7491 167.308C58.3011 167.836 58.7451 168.388 59.0811 168.964C59.4411 169.54 59.6211 170.14 59.6211 170.764C59.6211 171.916 59.2251 172.792 58.4331 173.392C57.6651 173.992 56.5971 174.292 55.2291 174.292C54.4131 174.292 53.6691 174.232 52.9971 174.112C52.6371 174.064 52.2891 174.004 51.9531 173.932V174.868ZM48.9291 170.548C49.4571 170.716 50.0091 170.848 50.5851 170.944C51.0651 171.064 51.6051 171.16 52.2051 171.232C52.8291 171.304 53.4531 171.34 54.0771 171.34C55.1811 171.34 55.7331 170.932 55.7331 170.116C55.7331 169.804 55.5651 169.492 55.2291 169.18C54.8931 168.844 54.4611 168.484 53.9331 168.1C53.4291 167.692 52.8771 167.248 52.2771 166.768C51.7011 166.288 51.1491 165.736 50.6211 165.112C50.1171 164.488 49.6971 163.792 49.3611 163.024C49.0251 162.232 48.8571 161.332 48.8571 160.324C48.8571 159.196 49.0611 158.2 49.4691 157.336C49.8771 156.472 50.4411 155.752 51.1611 155.176C51.8811 154.6 52.7211 154.168 53.6811 153.88C54.6651 153.568 55.7091 153.412 56.8131 153.412C57.3891 153.412 57.9651 153.448 58.5411 153.52C59.1171 153.568 59.6331 153.616 60.0891 153.664C60.6171 153.736 61.1331 153.808 61.6371 153.88V160.612C61.4451 160.588 61.2291 160.564 60.9891 160.54C60.7971 160.516 60.5811 160.492 60.3411 160.468C60.1011 160.444 59.8491 160.432 59.5851 160.432C59.4411 160.432 59.2611 160.444 59.0451 160.468C58.8291 160.468 58.6251 160.492 58.4331 160.54C58.2411 160.588 58.0731 160.672 57.9291 160.792C57.7851 160.912 57.7131 161.08 57.7131 161.296C57.7131 161.488 57.8691 161.728 58.1811 162.016C58.5171 162.304 58.9131 162.64 59.3691 163.024C59.8491 163.408 60.3651 163.852 60.9171 164.356C61.4931 164.86 62.0091 165.436 62.4651 166.084C62.9451 166.732 63.3411 167.464 63.6531 168.28C63.9891 169.096 64.1571 170.008 64.1571 171.016C64.1571 172.072 63.9891 173.068 63.6531 174.004C63.3171 174.916 62.7891 175.72 62.0691 176.416C61.3731 177.088 60.4731 177.616 59.3691 178C58.2651 178.408 56.9571 178.612 55.4451 178.612C54.5331 178.612 53.6811 178.564 52.8891 178.468C52.1211 178.396 51.4371 178.3 50.8371 178.18C50.1411 178.06 49.5051 177.916 48.9291 177.748V170.548ZM69.1322 160.288H64.7042V153.988H81.4802V160.288H77.0522V178H69.1322V160.288ZM73.5602 175.12V157.732H78.7082V156.868H67.4762V157.732H72.6242V175.12H73.5602ZM89.7607 166.012C89.7607 164.284 90.0847 162.652 90.7327 161.116C91.4047 159.58 92.3047 158.248 93.4327 157.12C94.5847 155.968 95.9287 155.068 97.4647 154.42C99.0007 153.748 100.633 153.412 102.361 153.412C104.089 153.412 105.721 153.748 107.257 154.42C108.793 155.068 110.125 155.968 111.253 157.12C112.405 158.248 113.305 159.58 113.953 161.116C114.625 162.652 114.961 164.284 114.961 166.012C114.961 167.74 114.625 169.372 113.953 170.908C113.305 172.444 112.405 173.788 111.253 174.94C110.125 176.068 108.793 176.968 107.257 177.64C105.721 178.288 104.089 178.612 102.361 178.612C100.633 178.612 99.0007 178.288 97.4647 177.64C95.9287 176.968 94.5847 176.068 93.4327 174.94C92.3047 173.788 91.4047 172.444 90.7327 170.908C90.0847 169.372 89.7607 167.74 89.7607 166.012ZM93.1447 166.012C93.1447 167.284 93.3847 168.484 93.8647 169.612C94.3447 170.716 95.0047 171.688 95.8447 172.528C96.6847 173.368 97.6567 174.028 98.7607 174.508C99.8887 174.988 101.089 175.228 102.361 175.228C103.633 175.228 104.821 174.988 105.925 174.508C107.053 174.028 108.037 173.368 108.877 172.528C109.717 171.688 110.377 170.716 110.857 169.612C111.337 168.484 111.577 167.284 111.577 166.012C111.577 164.74 111.337 163.552 110.857 162.448C110.377 161.32 109.717 160.336 108.877 159.496C108.037 158.656 107.053 157.996 105.925 157.516C104.821 157.036 103.633 156.796 102.361 156.796C101.089 156.796 99.8887 157.036 98.7607 157.516C97.6567 157.996 96.6847 158.656 95.8447 159.496C95.0047 160.336 94.3447 161.32 93.8647 162.448C93.3847 163.552 93.1447 164.74 93.1447 166.012ZM97.3207 166.012C97.3207 166.708 97.4527 167.368 97.7167 167.992C97.9807 168.592 98.3407 169.12 98.7967 169.576C99.2527 170.032 99.7807 170.392 100.381 170.656C101.005 170.92 101.665 171.052 102.361 171.052C103.057 171.052 103.705 170.92 104.305 170.656C104.929 170.392 105.469 170.032 105.925 169.576C106.381 169.12 106.741 168.592 107.005 167.992C107.269 167.368 107.401 166.708 107.401 166.012C107.401 165.316 107.269 164.668 107.005 164.068C106.741 163.444 106.381 162.904 105.925 162.448C105.469 161.992 104.929 161.632 104.305 161.368C103.705 161.104 103.057 160.972 102.361 160.972C101.665 160.972 101.005 161.104 100.381 161.368C99.7807 161.632 99.2527 161.992 98.7967 162.448C98.3407 162.904 97.9807 163.444 97.7167 164.068C97.4527 164.668 97.3207 165.316 97.3207 166.012ZM102.361 174.292C101.209 174.292 100.129 174.076 99.1207 173.644C98.1367 173.212 97.2607 172.624 96.4927 171.88C95.7487 171.112 95.1607 170.236 94.7287 169.252C94.2967 168.244 94.0807 167.164 94.0807 166.012C94.0807 164.86 94.2967 163.792 94.7287 162.808C95.1607 161.8 95.7487 160.924 96.4927 160.18C97.2607 159.412 98.1367 158.812 99.1207 158.38C100.129 157.948 101.209 157.732 102.361 157.732C103.513 157.732 104.581 157.948 105.565 158.38C106.573 158.812 107.449 159.412 108.193 160.18C108.961 160.924 109.561 161.8 109.993 162.808C110.425 163.792 110.641 164.86 110.641 166.012C110.641 167.164 110.425 168.244 109.993 169.252C109.561 170.236 108.961 171.112 108.193 171.88C107.449 172.624 106.573 173.212 105.565 173.644C104.581 174.076 103.513 174.292 102.361 174.292ZM124.617 169.648C125.553 169.648 126.465 169.552 127.353 169.36L130.773 175.12H131.889L128.289 169.072C129.585 168.616 130.617 167.92 131.385 166.984C132.153 166.024 132.537 164.788 132.537 163.276C132.537 162.22 132.333 161.296 131.925 160.504C131.517 159.712 130.953 159.052 130.233 158.524C129.537 157.972 128.709 157.564 127.749 157.3C126.789 157.012 125.745 156.868 124.617 156.868H120.729V175.12H121.665V169.648H124.617ZM121.665 168.784V157.732H124.617C126.801 157.732 128.505 158.212 129.729 159.172C130.977 160.132 131.601 161.5 131.601 163.276C131.601 165.052 130.977 166.42 129.729 167.38C128.505 168.316 126.801 168.784 124.617 168.784H121.665ZM117.129 153.988H125.409C126.945 153.988 128.361 154.192 129.657 154.6C130.977 155.008 132.117 155.608 133.077 156.4C134.037 157.192 134.781 158.176 135.309 159.352C135.861 160.504 136.137 161.836 136.137 163.348C136.137 164.548 135.969 165.568 135.633 166.408C135.297 167.248 134.925 167.944 134.517 168.496C134.037 169.12 133.497 169.648 132.897 170.08L137.397 178H128.397L124.797 171.916V178H117.129V153.988ZM124.797 165.796H125.193C126.105 165.796 126.873 165.592 127.497 165.184C128.145 164.776 128.469 164.092 128.469 163.132C128.469 162.172 128.145 161.488 127.497 161.08C126.873 160.672 126.105 160.468 125.193 160.468H124.797V165.796ZM138.298 178V153.988H144.958C147.214 153.988 149.218 154.24 150.97 154.744C152.746 155.248 154.234 156.004 155.434 157.012C156.658 158.02 157.582 159.28 158.206 160.792C158.854 162.28 159.178 164.008 159.178 165.976C159.178 167.944 158.854 169.684 158.206 171.196C157.582 172.684 156.658 173.932 155.434 174.94C154.234 175.948 152.746 176.716 150.97 177.244C149.218 177.748 147.214 178 144.958 178H138.298ZM142.834 174.256V157.732H144.958C148.006 157.732 150.37 158.428 152.05 159.82C153.754 161.188 154.606 163.24 154.606 165.976C154.606 168.712 153.754 170.776 152.05 172.168C150.37 173.56 148.006 174.256 144.958 174.256H142.834ZM141.898 175.12H144.958C148.462 175.12 151.102 174.328 152.878 172.744C154.678 171.136 155.578 168.88 155.578 165.976C155.578 163.072 154.678 160.828 152.878 159.244C151.102 157.66 148.462 156.868 144.958 156.868H141.898V175.12ZM145.966 171.16C147.766 171.16 149.158 170.74 150.142 169.9C151.126 169.036 151.618 167.728 151.618 165.976C151.618 164.224 151.126 162.928 150.142 162.088C149.158 161.248 147.766 160.828 145.966 160.828V171.16ZM161.329 153.988H175.477V160.288H168.997V162.952H175.369V168.928H168.997V171.7H175.729V178H161.329V153.988ZM173.065 175.12V174.256H165.865V166.372H172.705V165.508H165.865V157.732H173.065V156.868H164.929V175.12H173.065ZM185.556 169.648C186.492 169.648 187.404 169.552 188.292 169.36L191.712 175.12H192.828L189.228 169.072C190.524 168.616 191.556 167.92 192.324 166.984C193.092 166.024 193.476 164.788 193.476 163.276C193.476 162.22 193.272 161.296 192.864 160.504C192.456 159.712 191.892 159.052 191.172 158.524C190.476 157.972 189.648 157.564 188.688 157.3C187.728 157.012 186.684 156.868 185.556 156.868H181.668V175.12H182.604V169.648H185.556ZM182.604 168.784V157.732H185.556C187.74 157.732 189.444 158.212 190.668 159.172C191.916 160.132 192.54 161.5 192.54 163.276C192.54 165.052 191.916 166.42 190.668 167.38C189.444 168.316 187.74 168.784 185.556 168.784H182.604ZM178.068 153.988H186.348C187.884 153.988 189.3 154.192 190.596 154.6C191.916 155.008 193.056 155.608 194.016 156.4C194.976 157.192 195.72 158.176 196.248 159.352C196.8 160.504 197.076 161.836 197.076 163.348C197.076 164.548 196.908 165.568 196.572 166.408C196.236 167.248 195.864 167.944 195.456 168.496C194.976 169.12 194.436 169.648 193.836 170.08L198.336 178H189.336L185.736 171.916V178H178.068V153.988ZM185.736 165.796H186.132C187.044 165.796 187.812 165.592 188.436 165.184C189.084 164.776 189.408 164.092 189.408 163.132C189.408 162.172 189.084 161.488 188.436 161.08C187.812 160.672 187.044 160.468 186.132 160.468H185.736V165.796ZM208.999 174.868C209.335 174.94 209.695 175 210.079 175.048C210.415 175.096 210.763 175.144 211.123 175.192C211.507 175.216 211.891 175.228 212.275 175.228C212.947 175.228 213.595 175.156 214.219 175.012C214.867 174.844 215.443 174.58 215.947 174.22C216.451 173.86 216.847 173.404 217.135 172.852C217.447 172.276 217.603 171.58 217.603 170.764C217.603 170.068 217.423 169.408 217.063 168.784C216.727 168.16 216.283 167.56 215.731 166.984C215.203 166.408 214.627 165.856 214.003 165.328C213.403 164.8 212.827 164.272 212.275 163.744C211.747 163.192 211.303 162.652 210.943 162.124C210.607 161.572 210.439 161.008 210.439 160.432C210.439 159.568 210.715 158.908 211.267 158.452C211.819 157.972 212.707 157.732 213.931 157.732C214.123 157.732 214.315 157.744 214.507 157.768C214.723 157.768 214.927 157.78 215.119 157.804C215.311 157.828 215.503 157.84 215.695 157.84V156.904C215.527 156.904 215.347 156.892 215.155 156.868C214.987 156.844 214.795 156.832 214.579 156.832C214.387 156.808 214.183 156.796 213.967 156.796C212.671 156.796 211.603 157.096 210.763 157.696C209.923 158.272 209.503 159.184 209.503 160.432C209.503 161.104 209.671 161.74 210.007 162.34C210.367 162.916 210.811 163.492 211.339 164.068C211.891 164.62 212.467 165.16 213.067 165.688C213.691 166.216 214.267 166.756 214.795 167.308C215.347 167.836 215.791 168.388 216.127 168.964C216.487 169.54 216.667 170.14 216.667 170.764C216.667 171.916 216.271 172.792 215.479 173.392C214.711 173.992 213.643 174.292 212.275 174.292C211.459 174.292 210.715 174.232 210.043 174.112C209.683 174.064 209.335 174.004 208.999 173.932V174.868ZM205.975 170.548C206.503 170.716 207.055 170.848 207.631 170.944C208.111 171.064 208.651 171.16 209.251 171.232C209.875 171.304 210.499 171.34 211.123 171.34C212.227 171.34 212.779 170.932 212.779 170.116C212.779 169.804 212.611 169.492 212.275 169.18C211.939 168.844 211.507 168.484 210.979 168.1C210.475 167.692 209.923 167.248 209.323 166.768C208.747 166.288 208.195 165.736 207.667 165.112C207.163 164.488 206.743 163.792 206.407 163.024C206.071 162.232 205.903 161.332 205.903 160.324C205.903 159.196 206.107 158.2 206.515 157.336C206.923 156.472 207.487 155.752 208.207 155.176C208.927 154.6 209.767 154.168 210.727 153.88C211.711 153.568 212.755 153.412 213.859 153.412C214.435 153.412 215.011 153.448 215.587 153.52C216.163 153.568 216.679 153.616 217.135 153.664C217.663 153.736 218.179 153.808 218.683 153.88V160.612C218.491 160.588 218.275 160.564 218.035 160.54C217.843 160.516 217.627 160.492 217.387 160.468C217.147 160.444 216.895 160.432 216.631 160.432C216.487 160.432 216.307 160.444 216.091 160.468C215.875 160.468 215.671 160.492 215.479 160.54C215.287 160.588 215.119 160.672 214.975 160.792C214.831 160.912 214.759 161.08 214.759 161.296C214.759 161.488 214.915 161.728 215.227 162.016C215.563 162.304 215.959 162.64 216.415 163.024C216.895 163.408 217.411 163.852 217.963 164.356C218.539 164.86 219.055 165.436 219.511 166.084C219.991 166.732 220.387 167.464 220.699 168.28C221.035 169.096 221.203 170.008 221.203 171.016C221.203 172.072 221.035 173.068 220.699 174.004C220.363 174.916 219.835 175.72 219.115 176.416C218.419 177.088 217.519 177.616 216.415 178C215.311 178.408 214.003 178.612 212.491 178.612C211.579 178.612 210.727 178.564 209.935 178.468C209.167 178.396 208.483 178.3 207.883 178.18C207.187 178.06 206.551 177.916 205.975 177.748V170.548ZM228.482 167.668L221.03 153.988H229.562L232.334 159.064L235.07 153.988H243.602L236.15 167.668V178H228.482V167.668ZM232.802 175.12V166.516L238.058 156.868H236.942L232.334 165.4L227.69 156.868H226.61L231.83 166.516V175.12H232.802ZM246.695 174.868C247.031 174.94 247.391 175 247.775 175.048C248.111 175.096 248.459 175.144 248.819 175.192C249.203 175.216 249.587 175.228 249.971 175.228C250.643 175.228 251.291 175.156 251.915 175.012C252.563 174.844 253.139 174.58 253.643 174.22C254.147 173.86 254.543 173.404 254.831 172.852C255.143 172.276 255.299 171.58 255.299 170.764C255.299 170.068 255.119 169.408 254.759 168.784C254.423 168.16 253.979 167.56 253.427 166.984C252.899 166.408 252.323 165.856 251.699 165.328C251.099 164.8 250.523 164.272 249.971 163.744C249.443 163.192 248.999 162.652 248.639 162.124C248.303 161.572 248.135 161.008 248.135 160.432C248.135 159.568 248.411 158.908 248.963 158.452C249.515 157.972 250.403 157.732 251.627 157.732C251.819 157.732 252.011 157.744 252.203 157.768C252.419 157.768 252.623 157.78 252.815 157.804C253.007 157.828 253.199 157.84 253.391 157.84V156.904C253.223 156.904 253.043 156.892 252.851 156.868C252.683 156.844 252.491 156.832 252.275 156.832C252.083 156.808 251.879 156.796 251.663 156.796C250.367 156.796 249.299 157.096 248.459 157.696C247.619 158.272 247.199 159.184 247.199 160.432C247.199 161.104 247.367 161.74 247.703 162.34C248.063 162.916 248.507 163.492 249.035 164.068C249.587 164.62 250.163 165.16 250.763 165.688C251.387 166.216 251.963 166.756 252.491 167.308C253.043 167.836 253.487 168.388 253.823 168.964C254.183 169.54 254.363 170.14 254.363 170.764C254.363 171.916 253.967 172.792 253.175 173.392C252.407 173.992 251.339 174.292 249.971 174.292C249.155 174.292 248.411 174.232 247.739 174.112C247.379 174.064 247.031 174.004 246.695 173.932V174.868ZM243.671 170.548C244.199 170.716 244.751 170.848 245.327 170.944C245.807 171.064 246.347 171.16 246.947 171.232C247.571 171.304 248.195 171.34 248.819 171.34C249.923 171.34 250.475 170.932 250.475 170.116C250.475 169.804 250.307 169.492 249.971 169.18C249.635 168.844 249.203 168.484 248.675 168.1C248.171 167.692 247.619 167.248 247.019 166.768C246.443 166.288 245.891 165.736 245.363 165.112C244.859 164.488 244.439 163.792 244.103 163.024C243.767 162.232 243.599 161.332 243.599 160.324C243.599 159.196 243.803 158.2 244.211 157.336C244.619 156.472 245.183 155.752 245.903 155.176C246.623 154.6 247.463 154.168 248.423 153.88C249.407 153.568 250.451 153.412 251.555 153.412C252.131 153.412 252.707 153.448 253.283 153.52C253.859 153.568 254.375 153.616 254.831 153.664C255.359 153.736 255.875 153.808 256.379 153.88V160.612C256.187 160.588 255.971 160.564 255.731 160.54C255.539 160.516 255.323 160.492 255.083 160.468C254.843 160.444 254.591 160.432 254.327 160.432C254.183 160.432 254.003 160.444 253.787 160.468C253.571 160.468 253.367 160.492 253.175 160.54C252.983 160.588 252.815 160.672 252.671 160.792C252.527 160.912 252.455 161.08 252.455 161.296C252.455 161.488 252.611 161.728 252.923 162.016C253.259 162.304 253.655 162.64 254.111 163.024C254.591 163.408 255.107 163.852 255.659 164.356C256.235 164.86 256.751 165.436 257.207 166.084C257.687 166.732 258.083 167.464 258.395 168.28C258.731 169.096 258.899 170.008 258.899 171.016C258.899 172.072 258.731 173.068 258.395 174.004C258.059 174.916 257.531 175.72 256.811 176.416C256.115 177.088 255.215 177.616 254.111 178C253.007 178.408 251.699 178.612 250.187 178.612C249.275 178.612 248.423 178.564 247.631 178.468C246.863 178.396 246.179 178.3 245.579 178.18C244.883 178.06 244.247 177.916 243.671 177.748V170.548ZM263.874 160.288H259.446V153.988H276.222V160.288H271.794V178H263.874V160.288ZM268.302 175.12V157.732H273.45V156.868H262.218V157.732H267.366V175.12H268.302ZM277.656 153.988H291.804V160.288H285.324V162.952H291.696V168.928H285.324V171.7H292.056V178H277.656V153.988ZM289.392 175.12V174.256H282.192V166.372H289.032V165.508H282.192V157.732H289.392V156.868H281.256V175.12H289.392ZM294.394 153.988H300.73L306.994 163.204L313.222 153.988H319.558V178H311.89V169.36L306.994 176.56L302.062 169.36V178H294.394V153.988ZM298.93 175.12V158.596L306.994 170.332L315.022 158.596V175.12H315.958V156.868H315.022L306.994 168.712L298.93 156.868H297.994V175.12H298.93Z" fill="#35433E"/>
</svg>
