<svg width="18" height="18" viewBox="0 0 18 18" fill="none" xmlns="http://www.w3.org/2000/svg">
<g id="form / checkbox">
<rect id="Rectangle 1108" width="18" height="18" rx="4" fill="#61876E"/>
<path id="Vector" d="M6.26433 8.0473C6.01234 7.80391 5.67483 7.66924 5.32451 7.67229C4.97418 7.67533 4.63907 7.81585 4.39134 8.06357C4.14361 8.3113 4.00309 8.64642 4.00005 8.99674C3.99701 9.34707 4.13168 9.68457 4.37506 9.93657L7.0473 12.6088C7.29786 12.8593 7.63764 13 7.99193 13C8.34622 13 8.68601 12.8593 8.93657 12.6088L14.281 7.26433C14.5244 7.01234 14.6591 6.67483 14.6561 6.32451C14.653 5.97418 14.5125 5.63907 14.2648 5.39134C14.017 5.14361 13.6819 5.00309 13.3316 5.00005C12.9813 4.99701 12.6438 5.13168 12.3918 5.37506L7.99193 9.7749L6.26433 8.0473Z" fill="white"/>
</g>
</svg>
