<svg width="10" height="6" viewBox="0 0 10 6" fill="none" xmlns="http://www.w3.org/2000/svg">
<path d="M8.19991 0.200001C8.39248 0.0555721 8.63069 -0.0145469 8.8708 0.00251712C9.1109 0.0195812 9.3368 0.122682 9.50701 0.292894C9.67722 0.463105 9.78032 0.689002 9.79738 0.929112C9.81444 1.16922 9.74433 1.40743 9.5999 1.6L5.59994 5.6C5.41301 5.78323 5.1617 5.88586 4.89995 5.88586C4.6382 5.88586 4.38688 5.78323 4.19996 5.6L0.199999 1.6C0.0555719 1.40743 -0.0145468 1.16922 0.00251708 0.929112C0.019581 0.689002 0.122682 0.463105 0.292892 0.292894C0.463101 0.122682 0.688995 0.0195812 0.929102 0.00251712C1.16921 -0.0145469 1.40741 0.0555721 1.59998 0.200001L4.89995 3.49L8.19991 0.190001V0.200001Z" fill="#CFCFCF"/>
</svg>
