<svg width="17" height="18" viewBox="0 0 17 18" fill="none" xmlns="http://www.w3.org/2000/svg">
<g clip-path="url(#clip0_2687_48854)">
<path opacity="0.4" d="M0.75 6.75V16.3125C0.75 16.7601 0.92779 17.1893 1.24426 17.5057C1.56072 17.8222 1.98995 18 2.4375 18H14.8125C15.2601 18 15.6893 17.8222 16.0057 17.5057C16.3222 17.1893 16.5 16.7601 16.5 16.3125V6.75H0.75ZM14.25 11.8125C14.25 11.9617 14.1907 12.1048 14.0852 12.2102C13.9798 12.3157 13.8367 12.375 13.6875 12.375H3.5625C3.41332 12.375 3.27024 12.3157 3.16475 12.2102C3.05926 12.1048 3 11.9617 3 11.8125V9.5625C3 9.41332 3.05926 9.27024 3.16475 9.16475C3.27024 9.05926 3.41332 9 3.5625 9H13.6875C13.8367 9 13.9798 9.05926 14.0852 9.16475C14.1907 9.27024 14.25 9.41332 14.25 9.5625V11.8125ZM11.4375 4.5H12.5625C12.7117 4.5 12.8548 4.44074 12.9602 4.33525C13.0657 4.22976 13.125 4.08668 13.125 3.9375V0.5625C13.125 0.413316 13.0657 0.270242 12.9602 0.164752C12.8548 0.0592632 12.7117 0 12.5625 0L11.4375 0C11.2883 0 11.1452 0.0592632 11.0398 0.164752C10.9343 0.270242 10.875 0.413316 10.875 0.5625V3.9375C10.875 4.08668 10.9343 4.22976 11.0398 4.33525C11.1452 4.44074 11.2883 4.5 11.4375 4.5ZM4.6875 4.5H5.8125C5.96168 4.5 6.10476 4.44074 6.21025 4.33525C6.31574 4.22976 6.375 4.08668 6.375 3.9375V0.5625C6.375 0.413316 6.31574 0.270242 6.21025 0.164752C6.10476 0.0592632 5.96168 0 5.8125 0L4.6875 0C4.53832 0 4.39524 0.0592632 4.28975 0.164752C4.18426 0.270242 4.125 0.413316 4.125 0.5625V3.9375C4.125 4.08668 4.18426 4.22976 4.28975 4.33525C4.39524 4.44074 4.53832 4.5 4.6875 4.5Z" fill="#A0B0B8"/>
<path d="M16.5 3.9375V6.75H0.75V3.9375C0.75 3.48995 0.92779 3.06072 1.24426 2.74426C1.56072 2.42779 1.98995 2.25 2.4375 2.25H4.125V3.9375C4.125 4.08668 4.18426 4.22976 4.28975 4.33525C4.39524 4.44074 4.53832 4.5 4.6875 4.5H5.8125C5.96168 4.5 6.10476 4.44074 6.21025 4.33525C6.31574 4.22976 6.375 4.08668 6.375 3.9375V2.25H10.875V3.9375C10.875 4.08668 10.9343 4.22976 11.0398 4.33525C11.1452 4.44074 11.2883 4.5 11.4375 4.5H12.5625C12.7117 4.5 12.8548 4.44074 12.9602 4.33525C13.0657 4.22976 13.125 4.08668 13.125 3.9375V2.25H14.8125C15.2601 2.25 15.6893 2.42779 16.0057 2.74426C16.3222 3.06072 16.5 3.48995 16.5 3.9375Z" fill="#3C6255"/>
</g>
<defs>
<clipPath id="clip0_2687_48854">
<rect width="15.75" height="18" fill="white" transform="translate(0.75)"/>
</clipPath>
</defs>
</svg>
