<svg width="53" height="72" viewBox="0 0 53 72" fill="none" xmlns="http://www.w3.org/2000/svg">
<g id="file-alt-duotone 1" clip-path="url(#clip0_391_60382)">
<g id="Group">
<path id="Vector" opacity="0.4" d="M53 18.6345H37.5416C36.956 18.6345 36.3943 18.4008 35.9801 17.9847C35.566 17.5686 35.3333 17.0042 35.3333 16.4158V0.884532H3.31251C2.87859 0.883438 2.44871 0.968224 2.04741 1.13405C1.6461 1.29988 1.28124 1.54349 0.973646 1.85099C0.666051 2.15849 0.421752 2.52385 0.254695 2.92621C0.0876385 3.32857 0.00109655 3.76005 1.04044e-05 4.19601V68.5564C-0.00107847 68.9923 0.0833098 69.4242 0.248357 69.8274C0.413404 70.2306 0.655878 70.5972 0.961934 70.9063C1.26799 71.2153 1.63163 71.4608 2.03211 71.6286C2.43258 71.7965 2.86203 71.8834 3.29595 71.8845H49.6875C50.1214 71.8856 50.5513 71.8008 50.9526 71.635C51.3539 71.4692 51.7187 71.2255 52.0263 70.918C52.3339 70.6105 52.5782 70.2452 52.7453 69.8428C52.9123 69.4405 52.9989 69.009 53 68.573V18.6345ZM39.75 52.4704C39.75 52.9118 39.5755 53.335 39.2649 53.6471C38.9543 53.9592 38.533 54.1345 38.0937 54.1345H14.9062C14.467 54.1345 14.0457 53.9592 13.7351 53.6471C13.4245 53.335 13.25 52.9118 13.25 52.4704V51.3611C13.25 50.9197 13.4245 50.4965 13.7351 50.1844C14.0457 49.8723 14.467 49.697 14.9062 49.697H38.0937C38.533 49.697 38.9543 49.8723 39.2649 50.1844C39.5755 50.4965 39.75 50.9197 39.75 51.3611V52.4704ZM39.75 43.5954C39.75 44.0368 39.5755 44.46 39.2649 44.7721C38.9543 45.0842 38.533 45.2595 38.0937 45.2595H14.9062C14.467 45.2595 14.0457 45.0842 13.7351 44.7721C13.4245 44.46 13.25 44.0368 13.25 43.5954V42.4861C13.25 42.0447 13.4245 41.6215 13.7351 41.3094C14.0457 40.9973 14.467 40.822 14.9062 40.822H38.0937C38.533 40.822 38.9543 40.9973 39.2649 41.3094C39.5755 41.6215 39.75 42.0447 39.75 42.4861V43.5954ZM39.75 34.7205C39.75 35.1618 39.5755 35.5851 39.2649 35.8971C38.9543 36.2092 38.533 36.3845 38.0937 36.3845H14.9062C14.467 36.3845 14.0457 36.2092 13.7351 35.8971C13.4245 35.5851 13.25 35.1618 13.25 34.7205V33.6111C13.25 33.1697 13.4245 32.7465 13.7351 32.4344C14.0457 32.1223 14.467 31.947 14.9062 31.947H38.0937C38.533 31.947 38.9543 32.1223 39.2649 32.4344C39.5755 32.7465 39.75 33.1697 39.75 33.6111V34.7205Z" fill="#222222"/>
<path id="Vector_2" d="M52.0339 15.4452L38.5216 1.85536C38.2132 1.54656 37.8472 1.30189 37.4446 1.13532C37.042 0.968762 36.6107 0.883581 36.1753 0.884654H35.3333V16.4159C35.3333 17.0044 35.566 17.5687 35.9801 17.9848C36.3943 18.4009 36.956 18.6347 37.5417 18.6347H53V17.7888C53 17.3535 52.9147 16.9225 52.7489 16.5204C52.5831 16.1183 52.3402 15.753 52.0339 15.4452ZM38.0938 49.6972H14.9062C14.467 49.6972 14.0457 49.8725 13.7351 50.1845C13.4245 50.4966 13.25 50.9199 13.25 51.3612V52.4706C13.25 52.9119 13.4245 53.3352 13.7351 53.6473C14.0457 53.9593 14.467 54.1347 14.9062 54.1347H38.0938C38.533 54.1347 38.9543 53.9593 39.2649 53.6473C39.5755 53.3352 39.75 52.9119 39.75 52.4706V51.3612C39.75 50.9199 39.5755 50.4966 39.2649 50.1845C38.9543 49.8725 38.533 49.6972 38.0938 49.6972ZM38.0938 40.8222H14.9062C14.467 40.8222 14.0457 40.9975 13.7351 41.3095C13.4245 41.6216 13.25 42.0449 13.25 42.4862V43.5956C13.25 44.0369 13.4245 44.4602 13.7351 44.7723C14.0457 45.0843 14.467 45.2597 14.9062 45.2597H38.0938C38.533 45.2597 38.9543 45.0843 39.2649 44.7723C39.5755 44.4602 39.75 44.0369 39.75 43.5956V42.4862C39.75 42.0449 39.5755 41.6216 39.2649 41.3095C38.9543 40.9975 38.533 40.8222 38.0938 40.8222ZM38.0938 31.9472H14.9062C14.467 31.9472 14.0457 32.1225 13.7351 32.4345C13.4245 32.7466 13.25 33.1699 13.25 33.6112V34.7206C13.25 35.1619 13.4245 35.5852 13.7351 35.8973C14.0457 36.2093 14.467 36.3847 14.9062 36.3847H38.0938C38.533 36.3847 38.9543 36.2093 39.2649 35.8973C39.5755 35.5852 39.75 35.1619 39.75 34.7206V33.6112C39.75 33.1699 39.5755 32.7466 39.2649 32.4345C38.9543 32.1225 38.533 31.9472 38.0938 31.9472Z" fill="#222222"/>
</g>
</g>
<defs>
<clipPath id="clip0_391_60382">
<rect width="53" height="71" fill="white" transform="translate(0 0.884644)"/>
</clipPath>
</defs>
</svg>
