<svg width="25" height="25" viewBox="0 0 25 25" fill="none" xmlns="http://www.w3.org/2000/svg">
<g id="Group">
<path id="Vector" opacity="0.2" d="M12.5 0.5C5.87097 0.5 0.5 5.87484 0.5 12.5C0.5 19.1252 5.87097 24.5 12.5 24.5C19.129 24.5 24.5 19.129 24.5 12.5C24.5 5.87097 19.129 0.5 12.5 0.5ZM12.5 5.82258C12.9019 5.82258 13.2949 5.94177 13.6291 6.16508C13.9633 6.38839 14.2237 6.70578 14.3776 7.07713C14.5314 7.44847 14.5716 7.85709 14.4932 8.25131C14.4148 8.64553 14.2212 9.00765 13.937 9.29186C13.6528 9.57608 13.2907 9.76963 12.8965 9.84805C12.5023 9.92646 12.0936 9.88622 11.7223 9.7324C11.3509 9.57858 11.0335 9.3181 10.8102 8.9839C10.5869 8.6497 10.4677 8.25678 10.4677 7.85484C10.4677 7.31585 10.6819 6.79894 11.063 6.41782C11.4441 6.03669 11.961 5.82258 12.5 5.82258ZM15.2097 18.1129C15.2097 18.2669 15.1485 18.4146 15.0396 18.5235C14.9307 18.6324 14.783 18.6935 14.629 18.6935H10.371C10.217 18.6935 10.0693 18.6324 9.96039 18.5235C9.8515 18.4146 9.79032 18.2669 9.79032 18.1129V16.9516C9.79032 16.7976 9.8515 16.6499 9.96039 16.541C10.0693 16.4321 10.217 16.371 10.371 16.371H10.9516V13.2742H10.371C10.217 13.2742 10.0693 13.213 9.96039 13.1041C9.8515 12.9952 9.79032 12.8475 9.79032 12.6935V11.5323C9.79032 11.3783 9.8515 11.2306 9.96039 11.1217C10.0693 11.0128 10.217 10.9516 10.371 10.9516H13.4677C13.6217 10.9516 13.7694 11.0128 13.8783 11.1217C13.9872 11.2306 14.0484 11.3783 14.0484 11.5323V16.371H14.629C14.783 16.371 14.9307 16.4321 15.0396 16.541C15.1485 16.6499 15.2097 16.7976 15.2097 16.9516V18.1129Z" fill="#C53F3F"/>
<path id="Vector_2" d="M12.4987 9.88703C12.9007 9.88703 13.2936 9.76784 13.6278 9.54453C13.962 9.32122 14.2225 9.00383 14.3763 8.63248C14.5301 8.26113 14.5704 7.85251 14.4919 7.4583C14.4135 7.06408 14.22 6.70196 13.9358 6.41775C13.6515 6.13353 13.2894 5.93998 12.8952 5.86156C12.501 5.78314 12.0924 5.82339 11.721 5.97721C11.3497 6.13102 11.0323 6.3915 10.809 6.72571C10.5857 7.05991 10.4665 7.45283 10.4665 7.85477C10.4665 8.39376 10.6806 8.91067 11.0617 9.29179C11.4428 9.67291 11.9598 9.88703 12.4987 9.88703ZM14.6278 16.3709H14.0471V11.5322C14.0471 11.3782 13.986 11.2305 13.8771 11.1216C13.7682 11.0127 13.6205 10.9515 13.4665 10.9515H10.3697C10.2157 10.9515 10.068 11.0127 9.95913 11.1216C9.85024 11.2305 9.78906 11.3782 9.78906 11.5322V12.6935C9.78906 12.8475 9.85024 12.9952 9.95913 13.1041C10.068 13.2129 10.2157 13.2741 10.3697 13.2741H10.9504V16.3709H10.3697C10.2157 16.3709 10.068 16.4321 9.95913 16.541C9.85024 16.6499 9.78906 16.7975 9.78906 16.9515V18.1128C9.78906 18.2668 9.85024 18.4145 9.95913 18.5234C10.068 18.6323 10.2157 18.6935 10.3697 18.6935H14.6278C14.7818 18.6935 14.9295 18.6323 15.0384 18.5234C15.1472 18.4145 15.2084 18.2668 15.2084 18.1128V16.9515C15.2084 16.7975 15.1472 16.6499 15.0384 16.541C14.9295 16.4321 14.7818 16.3709 14.6278 16.3709Z" fill="#C53F3F"/>
</g>
</svg>
