<svg xmlns="http://www.w3.org/2000/svg" width="20" height="20" viewBox="0 0 20 20" fill="none">
    <g clip-path="url(#clip0_391_70246)">
        <path d="M14.3374 13.2933L17.5 16.4552L16.4552 17.5L13.2933 14.3374C12.1168 15.2805 10.6535 15.7935 9.14566 15.7913C5.47726 15.7913 2.5 12.8141 2.5 9.14566C2.5 5.47726 5.47726 2.5 9.14566 2.5C12.8141 2.5 15.7913 5.47726 15.7913 9.14566C15.7935 10.6535 15.2805 12.1168 14.3374 13.2933ZM12.8562 12.7454C13.7933 11.7817 14.3166 10.4899 14.3145 9.14566C14.3145 6.2895 12.0011 3.97681 9.14566 3.97681C6.2895 3.97681 3.97681 6.2895 3.97681 9.14566C3.97681 12.0011 6.2895 14.3145 9.14566 14.3145C10.4899 14.3166 11.7817 13.7933 12.7454 12.8562L12.8562 12.7454Z" fill="#8F8F8F"/>
    </g>
    <defs>
        <clipPath id="clip0_391_70246">
        <rect width="20" height="20" fill="white"/>
        </clipPath>
    </defs>
</svg>