<svg width="21" height="24" viewBox="0 0 21 24" fill="none" xmlns="http://www.w3.org/2000/svg">
<g id="user-duotone (3) 1" clip-path="url(#clip0_2080_72226)">
<g id="Group">
<path id="Vector" opacity="0.4" d="M16.5 6C16.5 7.18669 16.1481 8.34673 15.4888 9.33342C14.8295 10.3201 13.8925 11.0892 12.7961 11.5433C11.6997 11.9974 10.4933 12.1162 9.32946 11.8847C8.16557 11.6532 7.09648 11.0818 6.25736 10.2426C5.41825 9.40353 4.8468 8.33443 4.61529 7.17054C4.38378 6.00666 4.5026 4.80026 4.95673 3.7039C5.41085 2.60754 6.17989 1.67047 7.16658 1.01118C8.15328 0.351894 9.31331 0 10.5 0C12.0913 0 13.6174 0.632141 14.7426 1.75736C15.8679 2.88258 16.5 4.4087 16.5 6Z" fill="#61876E"/>
<path id="Vector_2" d="M14.7 13.5H13.9172C12.8457 13.994 11.6799 14.2499 10.5 14.2499C9.32012 14.2499 8.15427 13.994 7.08281 13.5H6.3C4.62925 13.5004 3.02704 14.1642 1.84564 15.3456C0.664241 16.527 0.00037281 18.1293 0 19.8L0 21.75C0 22.3467 0.237053 22.919 0.65901 23.341C1.08097 23.7629 1.65326 24 2.25 24H18.75C19.3467 24 19.919 23.7629 20.341 23.341C20.7629 22.919 21 22.3467 21 21.75V19.8C20.9996 18.1293 20.3358 16.527 19.1544 15.3456C17.973 14.1642 16.3708 13.5004 14.7 13.5Z" fill="#61876E"/>
</g>
</g>
<defs>
<clipPath id="clip0_2080_72226">
<rect width="21" height="24" fill="white"/>
</clipPath>
</defs>
</svg>
