<svg width="20" height="20" viewBox="0 0 20 20" fill="none" xmlns="http://www.w3.org/2000/svg">
<path d="M16.875 8.75H11.25V3.125C11.25 2.77969 10.9703 2.5 10.625 2.5H9.375C9.02969 2.5 8.75 2.77969 8.75 3.125V8.75H3.125C2.77969 8.75 2.5 9.02969 2.5 9.375V10.625C2.5 10.9703 2.77969 11.25 3.125 11.25H8.75V16.875C8.75 17.2203 9.02969 17.5 9.375 17.5H10.625C10.9703 17.5 11.25 17.2203 11.25 16.875V11.25H16.875C17.2203 11.25 17.5 10.9703 17.5 10.625V9.375C17.5 9.02969 17.2203 8.75 16.875 8.75Z" fill="white"/>
</svg>
