<svg width="18" height="24" viewBox="0 0 18 24" fill="none" xmlns="http://www.w3.org/2000/svg">
<g id="file-alt-duotone 1" clip-path="url(#clip0_2080_38104)">
<g id="Group">
<path id="Vector" opacity="0.4" d="M18 5.99988H12.75C12.5511 5.99988 12.3603 5.92086 12.2197 5.78021C12.079 5.63956 12 5.44879 12 5.24988V-0.000118537H1.125C0.977635 -0.000488343 0.831637 0.0281718 0.695346 0.0842256C0.559054 0.140279 0.435138 0.222629 0.330672 0.326573C0.226206 0.430516 0.143236 0.554018 0.0865003 0.690027C0.029764 0.826036 0.000372414 0.971888 3.53357e-06 1.11926V22.8749C-0.000366272 23.0222 0.0282939 23.1682 0.0843477 23.3045C0.140401 23.4408 0.222751 23.5647 0.326695 23.6692C0.430638 23.7737 0.55414 23.8566 0.690149 23.9134C0.826158 23.9701 0.97201 23.9995 1.11938 23.9999H16.875C17.0224 24.0002 17.1684 23.9716 17.3046 23.9155C17.4409 23.8595 17.5649 23.7771 17.6693 23.6732C17.7738 23.5692 17.8568 23.4457 17.9135 23.3097C17.9702 23.1737 17.9996 23.0279 18 22.8805V5.99988ZM13.5 17.4374C13.5 17.5866 13.4407 17.7296 13.3352 17.8351C13.2298 17.9406 13.0867 17.9999 12.9375 17.9999H5.0625C4.91332 17.9999 4.77024 17.9406 4.66475 17.8351C4.55926 17.7296 4.5 17.5866 4.5 17.4374V17.0624C4.5 16.9132 4.55926 16.7701 4.66475 16.6646C4.77024 16.5591 4.91332 16.4999 5.0625 16.4999H12.9375C13.0867 16.4999 13.2298 16.5591 13.3352 16.6646C13.4407 16.7701 13.5 16.9132 13.5 17.0624V17.4374ZM13.5 14.4374C13.5 14.5866 13.4407 14.7296 13.3352 14.8351C13.2298 14.9406 13.0867 14.9999 12.9375 14.9999H5.0625C4.91332 14.9999 4.77024 14.9406 4.66475 14.8351C4.55926 14.7296 4.5 14.5866 4.5 14.4374V14.0624C4.5 13.9132 4.55926 13.7701 4.66475 13.6646C4.77024 13.5591 4.91332 13.4999 5.0625 13.4999H12.9375C13.0867 13.4999 13.2298 13.5591 13.3352 13.6646C13.4407 13.7701 13.5 13.9132 13.5 14.0624V14.4374ZM13.5 11.4374C13.5 11.5866 13.4407 11.7296 13.3352 11.8351C13.2298 11.9406 13.0867 11.9999 12.9375 11.9999H5.0625C4.91332 11.9999 4.77024 11.9406 4.66475 11.8351C4.55926 11.7296 4.5 11.5866 4.5 11.4374V11.0624C4.5 10.9132 4.55926 10.7701 4.66475 10.6646C4.77024 10.5591 4.91332 10.4999 5.0625 10.4999H12.9375C13.0867 10.4999 13.2298 10.5591 13.3352 10.6646C13.4407 10.7701 13.5 10.9132 13.5 11.0624V11.4374Z" fill="#444444"/>
<path id="Vector_2" d="M17.6719 4.92188L13.0828 0.328128C12.9781 0.223747 12.8538 0.14104 12.717 0.0847371C12.5803 0.0284343 12.4338 -0.000359235 12.2859 3.38283e-06H12V5.25C12 5.44892 12.079 5.63968 12.2197 5.78033C12.3603 5.92098 12.5511 6 12.75 6H18V5.71407C18 5.56694 17.971 5.42126 17.9147 5.28534C17.8584 5.14941 17.7759 5.02591 17.6719 4.92188ZM12.9375 16.5H5.0625C4.91332 16.5 4.77024 16.5593 4.66475 16.6648C4.55926 16.7702 4.5 16.9133 4.5 17.0625V17.4375C4.5 17.5867 4.55926 17.7298 4.66475 17.8352C4.77024 17.9407 4.91332 18 5.0625 18H12.9375C13.0867 18 13.2298 17.9407 13.3352 17.8352C13.4407 17.7298 13.5 17.5867 13.5 17.4375V17.0625C13.5 16.9133 13.4407 16.7702 13.3352 16.6648C13.2298 16.5593 13.0867 16.5 12.9375 16.5ZM12.9375 13.5H5.0625C4.91332 13.5 4.77024 13.5593 4.66475 13.6648C4.55926 13.7702 4.5 13.9133 4.5 14.0625V14.4375C4.5 14.5867 4.55926 14.7298 4.66475 14.8352C4.77024 14.9407 4.91332 15 5.0625 15H12.9375C13.0867 15 13.2298 14.9407 13.3352 14.8352C13.4407 14.7298 13.5 14.5867 13.5 14.4375V14.0625C13.5 13.9133 13.4407 13.7702 13.3352 13.6648C13.2298 13.5593 13.0867 13.5 12.9375 13.5ZM12.9375 10.5H5.0625C4.91332 10.5 4.77024 10.5593 4.66475 10.6648C4.55926 10.7702 4.5 10.9133 4.5 11.0625V11.4375C4.5 11.5867 4.55926 11.7298 4.66475 11.8352C4.77024 11.9407 4.91332 12 5.0625 12H12.9375C13.0867 12 13.2298 11.9407 13.3352 11.8352C13.4407 11.7298 13.5 11.5867 13.5 11.4375V11.0625C13.5 10.9133 13.4407 10.7702 13.3352 10.6648C13.2298 10.5593 13.0867 10.5 12.9375 10.5Z" fill="#444444"/>
</g>
</g>
<defs>
<clipPath id="clip0_2080_38104">
<rect width="18" height="24" fill="white"/>
</clipPath>
</defs>
</svg>
