<svg width="14" height="13" viewBox="0 0 14 13" fill="none" xmlns="http://www.w3.org/2000/svg">
<path fill-rule="evenodd" clip-rule="evenodd" d="M7.28025 6.06963L10.7334 2.6165C10.972 2.37783 11.358 2.37783 11.5941 2.6165L12.1679 3.19033C12.4066 3.429 12.4066 3.81494 12.1679 4.05107L9.72283 6.50127L12.1705 8.94892C12.4092 9.1876 12.4092 9.57353 12.1705 9.80967L11.5967 10.386C11.358 10.6247 10.972 10.6247 10.7359 10.386L7.28279 6.93291C7.04158 6.69424 7.04158 6.3083 7.28025 6.06963ZM2.40525 6.93291L5.85838 10.386C6.09705 10.6247 6.48298 10.6247 6.71912 10.386L7.29295 9.81221C7.53162 9.57353 7.53162 9.1876 7.29295 8.95146L4.84783 6.50127L7.29549 4.05361C7.53416 3.81494 7.53416 3.429 7.29549 3.19287L6.72166 2.6165C6.48299 2.37783 6.09705 2.37783 5.86091 2.6165L2.40779 6.06963C2.16658 6.3083 2.16658 6.69424 2.40525 6.93291Z" fill="#999999"/>
</svg>
