<svg width="26" height="22" viewBox="0 0 26 22" fill="none" xmlns="http://www.w3.org/2000/svg">
<g id="Group">
<path id="Vector" d="M9.92444 5.78748H5.78906V21.502H9.92444V5.78748Z" fill="#5B4C35"/>
<path id="Vector_2" d="M18.1634 8.27075C17.9441 8.56437 17.8242 8.92014 17.8242 9.29207C17.8242 9.75128 18.0019 10.1773 18.3246 10.4996C18.6472 10.8223 19.0774 10.9999 19.5321 10.9999C19.9872 10.9999 20.4173 10.8223 20.7396 10.504C21.3478 9.8958 21.4015 8.94071 20.8967 8.27075H18.1634Z" fill="#5B4C35"/>
<path id="Vector_3" d="M17.3672 14.7179V21.5041H21.5026V14.7921C20.8783 15.0155 20.2127 15.1314 19.5342 15.1314C18.7819 15.1314 18.0457 14.9868 17.3672 14.7179Z" fill="#5B4C35"/>
<path id="Vector_4" d="M13.696 9.29211C13.696 7.73328 14.2994 6.26936 15.4035 5.16522C15.5028 5.06584 15.6022 4.97052 15.7096 4.88374V0H11.5742V21.504H15.7096V13.7045C15.6022 13.6177 15.5028 13.5228 15.4035 13.4235C14.2993 12.3194 13.696 10.8554 13.696 9.29211Z" fill="#5B4C35"/>
<path id="Vector_5" d="M4.13542 13.2292H0V21.5H4.13542V13.2292Z" fill="#5B4C35"/>
<path id="Vector_6" d="M25.6262 13.9585L23.3949 11.785C23.8708 11.0496 24.1283 10.1922 24.1283 9.29369C24.1283 8.06438 23.6506 6.91017 22.7835 6.04308C21.9164 5.17604 20.7622 4.69824 19.5329 4.69824C18.3036 4.69824 17.149 5.17599 16.2823 6.04308C15.4148 6.91012 14.9375 8.06433 14.9375 9.29369C14.9375 10.523 15.4148 11.6776 16.2819 12.5447C17.149 13.4117 18.3035 13.8895 19.5329 13.8895C20.4316 13.8895 21.289 13.6318 22.0248 13.1553L24.1974 15.3861C24.6024 15.8743 25.2001 15.9034 25.6621 15.4415C26.1245 14.9799 26.1144 14.3624 25.6262 13.9585ZM19.533 11.76C18.8743 11.76 18.2548 11.5031 17.7887 11.0375C17.3231 10.5719 17.0667 9.95233 17.0667 9.29369C17.0667 8.63501 17.3231 8.01589 17.7887 7.55027C18.2548 7.08466 18.8739 6.82781 19.533 6.82781C20.1912 6.82781 20.8107 7.08466 21.2764 7.55027C22.2379 8.51182 22.2379 10.0763 21.2764 11.0379C20.8107 11.5035 20.1916 11.76 19.533 11.76Z" fill="#5B4C35"/>
</g>
</svg>
