<svg width="24" height="24" viewBox="0 0 24 24" fill="none" xmlns="http://www.w3.org/2000/svg">
<g clip-path="url(#clip0_2814_59819)">
<path opacity="0.4" d="M4.875 19.3125C4.875 19.7601 5.05279 20.1893 5.36926 20.5057C5.68572 20.8222 6.11495 21 6.5625 21H16.6875C17.1351 21 17.5643 20.8222 17.8807 20.5057C18.1972 20.1893 18.375 19.7601 18.375 19.3125V6.375H4.875V19.3125ZM14.4375 9.1875C14.4375 9.03832 14.4968 8.89524 14.6023 8.78975C14.7077 8.68426 14.8508 8.625 15 8.625C15.1492 8.625 15.2923 8.68426 15.3977 8.78975C15.5032 8.89524 15.5625 9.03832 15.5625 9.1875V17.0625C15.5625 17.2117 15.5032 17.3548 15.3977 17.4602C15.2923 17.5657 15.1492 17.625 15 17.625C14.8508 17.625 14.7077 17.5657 14.6023 17.4602C14.4968 17.3548 14.4375 17.2117 14.4375 17.0625V9.1875ZM11.0625 9.1875C11.0625 9.03832 11.1218 8.89524 11.2273 8.78975C11.3327 8.68426 11.4758 8.625 11.625 8.625C11.7742 8.625 11.9173 8.68426 12.0227 8.78975C12.1282 8.89524 12.1875 9.03832 12.1875 9.1875V17.0625C12.1875 17.2117 12.1282 17.3548 12.0227 17.4602C11.9173 17.5657 11.7742 17.625 11.625 17.625C11.4758 17.625 11.3327 17.5657 11.2273 17.4602C11.1218 17.3548 11.0625 17.2117 11.0625 17.0625V9.1875ZM7.6875 9.1875C7.6875 9.03832 7.74676 8.89524 7.85225 8.78975C7.95774 8.68426 8.10082 8.625 8.25 8.625C8.39918 8.625 8.54226 8.68426 8.64775 8.78975C8.75324 8.89524 8.8125 9.03832 8.8125 9.1875V17.0625C8.8125 17.2117 8.75324 17.3548 8.64775 17.4602C8.54226 17.5657 8.39918 17.625 8.25 17.625C8.10082 17.625 7.95774 17.5657 7.85225 17.4602C7.74676 17.3548 7.6875 17.2117 7.6875 17.0625V9.1875Z" fill="white"/>
<path d="M18.9375 4.12501H14.7188L14.3883 3.46758C14.3183 3.32703 14.2104 3.20881 14.0769 3.1262C13.9434 3.0436 13.7894 2.99989 13.6324 3.00001H9.61406C9.4574 2.9994 9.30373 3.04295 9.17067 3.12564C9.03761 3.20834 8.93054 3.32685 8.86172 3.46758L8.53125 4.12501H4.3125C4.16332 4.12501 4.02024 4.18427 3.91475 4.28976C3.80926 4.39525 3.75 4.53832 3.75 4.68751V5.81251C3.75 5.96169 3.80926 6.10477 3.91475 6.21025C4.02024 6.31574 4.16332 6.37501 4.3125 6.37501H18.9375C19.0867 6.37501 19.2298 6.31574 19.3352 6.21025C19.4407 6.10477 19.5 5.96169 19.5 5.81251V4.68751C19.5 4.53832 19.4407 4.39525 19.3352 4.28976C19.2298 4.18427 19.0867 4.12501 18.9375 4.12501ZM8.25 8.62501C8.10082 8.62501 7.95774 8.68427 7.85225 8.78976C7.74676 8.89525 7.6875 9.03832 7.6875 9.18751V17.0625C7.6875 17.2117 7.74676 17.3548 7.85225 17.4603C7.95774 17.5657 8.10082 17.625 8.25 17.625C8.39918 17.625 8.54226 17.5657 8.64775 17.4603C8.75324 17.3548 8.8125 17.2117 8.8125 17.0625V9.18751C8.8125 9.03832 8.75324 8.89525 8.64775 8.78976C8.54226 8.68427 8.39918 8.62501 8.25 8.62501ZM11.625 8.62501C11.4758 8.62501 11.3327 8.68427 11.2273 8.78976C11.1218 8.89525 11.0625 9.03832 11.0625 9.18751V17.0625C11.0625 17.2117 11.1218 17.3548 11.2273 17.4603C11.3327 17.5657 11.4758 17.625 11.625 17.625C11.7742 17.625 11.9173 17.5657 12.0227 17.4603C12.1282 17.3548 12.1875 17.2117 12.1875 17.0625V9.18751C12.1875 9.03832 12.1282 8.89525 12.0227 8.78976C11.9173 8.68427 11.7742 8.62501 11.625 8.62501ZM15 8.62501C14.8508 8.62501 14.7077 8.68427 14.6023 8.78976C14.4968 8.89525 14.4375 9.03832 14.4375 9.18751V17.0625C14.4375 17.2117 14.4968 17.3548 14.6023 17.4603C14.7077 17.5657 14.8508 17.625 15 17.625C15.1492 17.625 15.2923 17.5657 15.3977 17.4603C15.5032 17.3548 15.5625 17.2117 15.5625 17.0625V9.18751C15.5625 9.03832 15.5032 8.89525 15.3977 8.78976C15.2923 8.68427 15.1492 8.62501 15 8.62501Z" fill="white"/>
</g>
<defs>
<clipPath id="clip0_2814_59819">
<rect width="15.75" height="18" fill="white" transform="translate(3.75 3)"/>
</clipPath>
</defs>
</svg>
