<svg width="32" height="32" viewBox="0 0 32 32" fill="none" xmlns="http://www.w3.org/2000/svg">
<path opacity="0.4" d="M22.3479 10.3009C22.3479 11.5312 21.983 12.734 21.2995 13.757C20.6159 14.78 19.6444 15.5773 18.5077 16.0481C17.3709 16.519 16.1202 16.6422 14.9134 16.4021C13.7067 16.1621 12.5983 15.5696 11.7283 14.6996C10.8583 13.8297 10.2658 12.7212 10.0258 11.5145C9.78575 10.3078 9.90895 9.05698 10.3798 7.92028C10.8506 6.78358 11.648 5.81202 12.671 5.12847C13.694 4.44492 14.8967 4.08008 16.1271 4.08008C17.7769 4.08008 19.3592 4.73548 20.5258 5.90211C21.6924 7.06873 22.3479 8.65102 22.3479 10.3009Z" fill="#BCB4A8"/>
<path d="M20.4831 18.0767H19.6715C18.5606 18.5889 17.3519 18.8541 16.1286 18.8541C14.9053 18.8541 13.6965 18.5889 12.5856 18.0767H11.774C10.0418 18.077 8.38062 18.7653 7.15575 19.9902C5.93087 21.2151 5.24257 22.8763 5.24219 24.6085V26.6303C5.24219 27.249 5.48796 27.8423 5.92545 28.2798C6.36293 28.7173 6.95629 28.9631 7.57499 28.9631H24.6822C25.3009 28.9631 25.8942 28.7173 26.3317 28.2798C26.7692 27.8423 27.015 27.249 27.015 26.6303V24.6085C27.0146 22.8763 26.3263 21.2151 25.1014 19.9902C23.8766 18.7653 22.2154 18.077 20.4831 18.0767Z" fill="#BCB4A8"/>
<path d="M9.5625 9.48008C9.5625 6.49774 11.9802 4.08008 14.9625 4.08008H17.1225C20.1048 4.08008 22.5225 6.49774 22.5225 9.48008H9.5625Z" fill="#D9D9D9"/>
<rect x="14.9609" y="3" width="2.16" height="6.48" fill="#5B4C35"/>
</svg>
