<svg width="27" height="27" viewBox="0 0 27 27" fill="none" xmlns="http://www.w3.org/2000/svg">
<path d="M2 10.785C2 10.1859 2.26862 9.61827 2.73196 9.2384L12.732 1.03964C13.4693 0.435145 14.5307 0.435145 15.268 1.03964L25.268 9.2384C25.7314 9.61827 26 10.1859 26 10.785V22C26 23.1046 25.1046 24 24 24H4C2.89543 24 2 23.1046 2 22V10.785Z" fill="#D9D9D9"/>
<path opacity="0.4" d="M17.2726 12.3629C17.2726 13.028 17.0754 13.6781 16.7058 14.2312C16.3363 14.7842 15.8111 15.2152 15.1966 15.4697C14.5822 15.7243 13.906 15.7909 13.2537 15.6611C12.6013 15.5313 12.0021 15.2111 11.5318 14.7408C11.0615 14.2705 10.7412 13.6712 10.6115 13.0189C10.4817 12.3666 10.5483 11.6904 10.8029 11.0759C11.0574 10.4615 11.4884 9.93626 12.0414 9.56674C12.5944 9.19723 13.2446 9 13.9097 9C14.8016 9 15.657 9.3543 16.2876 9.98496C16.9183 10.6156 17.2726 11.471 17.2726 12.3629Z" fill="#6B6B6B"/>
<path d="M16.239 16.5654H15.8003C15.1997 16.8423 14.5463 16.9857 13.885 16.9857C13.2237 16.9857 12.5703 16.8423 11.9697 16.5654H11.531C10.5946 16.5656 9.69658 16.9377 9.03444 17.5999C8.37229 18.262 8.00021 19.16 8 20.0964V21.1894C8 21.5238 8.13286 21.8446 8.36936 22.0811C8.60586 22.3176 8.92661 22.4504 9.26107 22.4504H18.5089C18.8434 22.4504 19.1641 22.3176 19.4006 22.0811C19.6371 21.8446 19.77 21.5238 19.77 21.1894V20.0964C19.7698 19.16 19.3977 18.262 18.7356 17.5999C18.0734 16.9377 17.1754 16.5656 16.239 16.5654Z" fill="#6B6B6B"/>
</svg>
