<svg width="16" height="16" viewBox="0 0 16 16" fill="none" xmlns="http://www.w3.org/2000/svg">
<path d="M14.9185 13.4685L11.9979 10.5478C11.866 10.416 11.6873 10.3428 11.4999 10.3428H11.0224C11.8309 9.30871 12.3113 8.00806 12.3113 6.59316C12.3113 3.22727 9.58404 0.5 6.21815 0.5C2.85227 0.5 0.125 3.22727 0.125 6.59316C0.125 9.95904 2.85227 12.6863 6.21815 12.6863C7.63306 12.6863 8.93371 12.2059 9.96779 11.3974V11.8749C9.96779 12.0623 10.041 12.241 10.1728 12.3729L13.0935 15.2935C13.3688 15.5688 13.8141 15.5688 14.0865 15.2935L14.9155 14.4645C15.1909 14.1891 15.1909 13.7438 14.9185 13.4685ZM6.21815 10.3428C4.14707 10.3428 2.46852 8.66717 2.46852 6.59316C2.46852 4.52207 4.14414 2.84352 6.21815 2.84352C8.28924 2.84352 9.96779 4.51914 9.96779 6.59316C9.96779 8.66424 8.29217 10.3428 6.21815 10.3428Z" fill="#3C6255"/>
</svg>
