<svg width="32" height="32" viewBox="0 0 32 32" fill="none" xmlns="http://www.w3.org/2000/svg">
<g id="icon_home">
<path id="Vector" d="M29.1186 14.8266L24.532 10.88V6.39997C24.532 5.75997 24.1053 5.3333 23.4653 5.3333H21.332C20.692 5.3333 20.2653 5.75997 20.2653 6.39997V7.35997L16.7453 4.3733C16.3186 4.0533 15.6786 4.0533 15.252 4.3733L2.87864 14.8266C2.34531 15.2533 2.66531 16 3.30531 16H5.33198V27.7333C5.33198 28.3733 5.75864 28.8 6.39864 28.8H12.7986V22.4C12.7986 20.5866 14.1853 19.2 15.9986 19.2C17.812 19.2 19.1986 20.5866 19.1986 22.4V28.8H25.5986C26.2386 28.8 26.6653 28.3733 26.6653 27.7333V16H28.692C29.332 16 29.652 15.2533 29.1186 14.8266Z" fill="#FCF8E8"/>
</g>
</svg>
