<svg width="32" height="32" viewBox="0 0 32 32" fill="none" xmlns="http://www.w3.org/2000/svg">
<path d="M13 14.5139C13 14.0758 13.1439 13.6498 13.4094 13.3014L18.9094 6.08649C19.7099 5.03648 21.2901 5.03648 22.0906 6.08649L27.5906 13.3014C27.8561 13.6498 28 14.0758 28 14.5139V26C28 27.1046 27.1046 28 26 28H15C13.8954 28 13 27.1046 13 26V14.5139Z" fill="#5B4C35"/>
<path d="M4 14.549C4 14.0894 4.15829 13.6438 4.44825 13.2872L10.4483 5.90836C11.2486 4.92406 12.7514 4.92406 13.5517 5.90836L19.5517 13.2872C19.8417 13.6438 20 14.0894 20 14.549V26C20 27.1046 19.1046 28 18 28H6C4.89543 28 4 27.1046 4 26V14.549Z" fill="#5B4C35"/>
<path d="M24 26.9091H17V21.8182C17 16.7274 24 16.7272 24 21.8182V26.9091Z" fill="#D9D9D9"/>
</svg>
