<svg width="32" height="32" viewBox="0 0 32 32" fill="none" xmlns="http://www.w3.org/2000/svg">
<g id="icon_set">
<path id="Vector" d="M28.3726 13.7599L25.2792 13.44C25.0659 12.6933 24.7459 11.9466 24.4259 11.3066L26.3459 8.85328C26.5592 8.63995 26.4526 8.31995 26.3459 8.10662L23.9992 5.75995C23.7859 5.54662 23.4659 5.54662 23.2526 5.75995L20.7992 7.67995C20.1592 7.25328 19.4126 7.03995 18.6659 6.82662L18.3459 3.73328C18.1326 3.41328 17.9192 3.19995 17.7059 3.19995H14.3992C14.0792 3.19995 13.8659 3.41328 13.8659 3.62662L13.5459 6.71995C12.7992 6.93328 12.0526 7.25328 11.4126 7.57328L8.85255 5.75995C8.63922 5.54662 8.31922 5.65328 8.10589 5.75995L5.75922 8.10662C5.54589 8.31995 5.54589 8.63995 5.75922 8.85328L7.67922 11.3066C7.25255 11.9466 7.03922 12.6933 6.82589 13.44L3.73255 13.7599C3.41255 13.8666 3.19922 14.08 3.19922 14.2933V17.6C3.19922 17.92 3.41255 18.1333 3.62589 18.1333L6.71922 18.4533C6.93255 19.1999 7.25255 19.9466 7.57255 20.5866L5.65255 23.04C5.43922 23.2533 5.54589 23.5733 5.65255 23.7866L7.99922 26.1333C8.21255 26.3466 8.53255 26.3466 8.74588 26.1333L11.1992 24.2133C11.8392 24.6399 12.5859 24.8533 13.3326 25.0666L13.6526 28.1599C13.6526 28.4799 13.8659 28.5866 14.1859 28.5866H17.4926C17.8126 28.5866 18.0259 28.3733 18.0259 28.1599L18.3459 25.0666C19.0926 24.8533 19.8392 24.5333 20.4792 24.2133L22.9326 26.1333C23.1459 26.3466 23.4659 26.24 23.6792 26.1333L26.0259 23.7866C26.2392 23.5733 26.2392 23.2533 26.0259 23.04L24.1059 20.5866C24.5326 19.9466 24.7459 19.1999 24.9592 18.4533L28.0525 18.1333C28.3725 18.1333 28.4792 17.92 28.4792 17.6V14.2933C28.7992 14.08 28.5859 13.8666 28.3726 13.7599ZM15.9992 20.2666C13.6526 20.2666 11.7326 18.3466 11.7326 16C11.7326 13.6533 13.6526 11.7333 15.9992 11.7333C18.3459 11.7333 20.2659 13.6533 20.2659 16C20.2659 18.3466 18.3459 20.2666 15.9992 20.2666Z" fill="#5B4C35"/>
</g>
</svg>
