<svg width="32" height="32" viewBox="0 0 32 32" fill="none" xmlns="http://www.w3.org/2000/svg">
<path opacity="0.4" d="M19.8403 9.76C19.8403 10.8992 19.5025 12.0129 18.8696 12.9601C18.2367 13.9073 17.3371 14.6456 16.2846 15.0815C15.2321 15.5175 14.0739 15.6316 12.9566 15.4093C11.8393 15.1871 10.8129 14.6385 10.0074 13.8329C9.20183 13.0274 8.65324 12.001 8.43099 10.8837C8.20874 9.76639 8.32281 8.60825 8.75877 7.55574C9.19473 6.50324 9.933 5.60365 10.8802 4.97074C11.8275 4.33782 12.9411 4 14.0803 4C15.608 4 17.073 4.60686 18.1532 5.68706C19.2335 6.76727 19.8403 8.23235 19.8403 9.76Z" fill="#222222"/>
<path d="M18.112 16.96H17.3605C16.3319 17.4342 15.2127 17.6798 14.08 17.6798C12.9473 17.6798 11.8281 17.4342 10.7995 16.96H10.048C8.44408 16.9603 6.90596 17.5976 5.77181 18.7318C4.63767 19.8659 4.00036 21.404 4 23.008V24.88C4 25.4528 4.22757 26.0022 4.63265 26.4073C5.03773 26.8124 5.58713 27.04 6.16 27.04H22C22.5729 27.04 23.1223 26.8124 23.5273 26.4073C23.9324 26.0022 24.16 25.4528 24.16 24.88V23.008C24.1596 21.404 23.5223 19.8659 22.3882 18.7318C21.254 17.5976 19.7159 16.9603 18.112 16.96Z" fill="#5B4C35"/>
<rect x="16" y="16" width="13" height="13" rx="2" fill="#8B8B8B"/>
<rect x="20" y="18" width="5" height="2" rx="1" fill="#5B4C35"/>
</svg>
