<svg width="14" height="13" viewBox="0 0 14 13" fill="none" xmlns="http://www.w3.org/2000/svg">
<path fill-rule="evenodd" clip-rule="evenodd" d="M7.29326 6.93291L3.84014 10.386C3.60146 10.6247 3.21553 10.6247 2.97939 10.386L2.40557 9.81221C2.16689 9.57353 2.16689 9.1876 2.40557 8.95146L4.85322 6.50381L2.40557 4.05615C2.16689 3.81748 2.16689 3.43154 2.40557 3.19541L2.97686 2.6165C3.21553 2.37783 3.60146 2.37783 3.8376 2.6165L7.29072 6.06963C7.53193 6.3083 7.53193 6.69424 7.29326 6.93291ZM12.1683 6.06963L8.71514 2.6165C8.47646 2.37783 8.09053 2.37783 7.85439 2.6165L7.28057 3.19033C7.04189 3.429 7.04189 3.81494 7.28057 4.05107L9.72822 6.49873L7.28057 8.94639C7.04189 9.18506 7.04189 9.571 7.28057 9.80713L7.85439 10.381C8.09307 10.6196 8.479 10.6196 8.71514 10.381L12.1683 6.92783C12.4069 6.69424 12.4069 6.3083 12.1683 6.06963Z" fill="#222222"/>
</svg>
