<svg width="20" height="20" viewBox="0 0 20 20" fill="none" xmlns="http://www.w3.org/2000/svg">
<path d="M13.7955 12.0952L13.2205 11.5202C13.0812 11.381 12.8548 11.3833 12.7183 11.5253L10.4473 13.8901L10.4473 3.78911C10.4473 3.59496 10.2899 3.43755 10.0957 3.43755H9.27544C9.08129 3.43755 8.92387 3.59496 8.92387 3.78911L8.92387 13.8901L6.65284 11.5253C6.51644 11.3833 6.28994 11.381 6.15069 11.5203L5.57571 12.0952C5.43843 12.2325 5.43843 12.4551 5.57571 12.5924L9.43701 16.4537C9.57429 16.591 9.79689 16.591 9.93421 16.4537L13.7955 12.5924C13.9328 12.4551 13.9328 12.2325 13.7955 12.0952Z" fill="#2A9EC2"/>
</svg>
