<svg width="10" height="16" viewBox="0 0 10 16" fill="none" xmlns="http://www.w3.org/2000/svg">
<g id="long-arrow-up-regular 1">
<path id="Vector" d="M8.79547 10.0952L8.22049 9.52023C8.08125 9.38098 7.85475 9.38327 7.71835 9.5253L5.44731 11.8901L5.44731 1.78911C5.44731 1.59496 5.2899 1.43755 5.09575 1.43755H4.27544C4.08129 1.43755 3.92387 1.59496 3.92387 1.78911L3.92387 11.8901L1.65284 9.52533C1.51644 9.38327 1.28994 9.38098 1.15069 9.52026L0.575713 10.0952C0.438429 10.2325 0.438429 10.4551 0.575713 10.5924L4.43701 14.4537C4.57429 14.591 4.79689 14.591 4.93421 14.4537L8.79547 10.5924C8.93276 10.4551 8.93276 10.2325 8.79547 10.0952Z" fill="#3C6255"/>
</g>
</svg>
