<svg width="24" height="24" viewBox="0 0 24 24" fill="none" xmlns="http://www.w3.org/2000/svg">
<path opacity="0.4" d="M12 3C7.02823 3 3 7.02823 3 12C3 16.9718 7.02823 21 12 21C16.9718 21 21 16.9718 21 12C21 7.02823 16.9718 3 12 3ZM17.6362 10.0879L10.9588 16.7653C10.8499 16.8741 10.7023 16.9352 10.5484 16.9352C10.3945 16.9352 10.2468 16.8741 10.1379 16.7653L6.36375 12.9911C6.25494 12.8822 6.19382 12.7346 6.19382 12.5806C6.19382 12.4267 6.25494 12.2791 6.36375 12.1702L7.18464 11.349C7.23856 11.295 7.30257 11.2522 7.37303 11.223C7.44348 11.1939 7.519 11.1788 7.59526 11.1788C7.67152 11.1788 7.74704 11.1939 7.8175 11.223C7.88795 11.2522 7.95197 11.295 8.00589 11.349L10.5484 13.8915L15.9941 8.44573C16.048 8.39179 16.112 8.34901 16.1825 8.31982C16.253 8.29064 16.3285 8.27561 16.4047 8.27561C16.481 8.27561 16.5565 8.29064 16.627 8.31982C16.6974 8.34901 16.7614 8.39179 16.8154 8.44573L17.6362 9.26698C17.7451 9.37586 17.8062 9.52349 17.8062 9.67742C17.8062 9.83135 17.7451 9.97898 17.6362 10.0879Z" fill="#C53F3F"/>
<path d="M10.9603 16.7653C10.8514 16.8741 10.7038 16.9352 10.5499 16.9352C10.396 16.9352 10.2483 16.8741 10.1394 16.7653L6.36525 12.9911C6.25644 12.8822 6.19531 12.7346 6.19531 12.5807C6.19531 12.4267 6.25644 12.2791 6.36525 12.1702L7.18613 11.349C7.24005 11.295 7.30407 11.2523 7.37452 11.2231C7.44498 11.1939 7.52049 11.1789 7.59676 11.1789C7.67302 11.1789 7.74854 11.1939 7.81899 11.2231C7.88945 11.2523 7.95346 11.295 8.00738 11.349L10.5499 13.8915L15.9956 8.44575C16.0495 8.39182 16.1135 8.34903 16.184 8.31985C16.2545 8.29066 16.33 8.27563 16.4062 8.27563C16.4825 8.27563 16.558 8.29066 16.6285 8.31985C16.6989 8.34903 16.7629 8.39182 16.8169 8.44575L17.6377 9.267C17.7466 9.37588 17.8077 9.52351 17.8077 9.67744C17.8077 9.83137 17.7466 9.979 17.6377 10.0879L10.9603 16.7653Z" fill="black"/>
</svg>
